<?xml version="1.0" encoding="UTF-8"?>
<svg id="Layer_2" data-name="Layer 2" xmlns="http://www.w3.org/2000/svg" xmlns:xlink="http://www.w3.org/1999/xlink" viewBox="0 0 1860 529.41">
  <defs>
    <style>
      .cls-1 {
        fill: url(#linear-gradient-15);
      }

      .cls-2 {
        fill: url(#linear-gradient-13);
      }

      .cls-3 {
        fill: url(#linear-gradient-28);
      }

      .cls-4 {
        fill: url(#linear-gradient-2);
      }

      .cls-5 {
        fill: url(#linear-gradient-25);
      }

      .cls-6 {
        fill: url(#linear-gradient-10);
      }

      .cls-7 {
        fill: url(#linear-gradient-12);
      }

      .cls-8 {
        fill: url(#linear-gradient-27);
      }

      .cls-9 {
        fill: #fff;
      }

      .cls-10 {
        fill: url(#linear-gradient-26);
      }

      .cls-11 {
        fill: none;
      }

      .cls-12 {
        fill: url(#linear-gradient-4);
      }

      .cls-13 {
        fill: url(#linear-gradient-30);
      }

      .cls-14 {
        fill: url(#linear-gradient-3);
      }

      .cls-15 {
        fill: url(#linear-gradient-5);
      }

      .cls-16 {
        fill: url(#linear-gradient-22);
      }

      .cls-17 {
        fill: url(#linear-gradient-24);
      }

      .cls-18 {
        fill: url(#linear-gradient-8);
      }

      .cls-19 {
        fill: url(#linear-gradient-14);
      }

      .cls-20 {
        fill: url(#linear-gradient-29);
      }

      .cls-21 {
        fill: url(#linear-gradient-20);
      }

      .cls-22 {
        fill: url(#linear-gradient-17);
      }

      .cls-23 {
        fill: url(#linear-gradient-7);
      }

      .cls-24 {
        fill: url(#linear-gradient-9);
      }

      .cls-25 {
        fill: url(#linear-gradient-11);
      }

      .cls-26 {
        fill: url(#linear-gradient-19);
      }

      .cls-27 {
        fill: url(#linear-gradient-6);
      }

      .cls-28 {
        fill: url(#linear-gradient-21);
      }

      .cls-29 {
        fill: url(#linear-gradient-16);
      }

      .cls-30 {
        fill: url(#linear-gradient);
      }

      .cls-31 {
        fill: url(#linear-gradient-23);
      }

      .cls-32 {
        fill: url(#linear-gradient-18);
      }
    </style>
    <linearGradient id="linear-gradient" x1="802.12" y1="488.78" x2="1268.04" y2="488.78" gradientUnits="userSpaceOnUse">
      <stop offset="0" stop-color="#ec008c"/>
      <stop offset="1" stop-color="#006fb8"/>
    </linearGradient>
    <linearGradient id="linear-gradient-2" x1="1689.49" y1="488.78" x2="1860" y2="488.78" gradientUnits="userSpaceOnUse">
      <stop offset="0" stop-color="#f37925"/>
      <stop offset="1" stop-color="#ec008c"/>
    </linearGradient>
    <linearGradient id="linear-gradient-3" x1="646.62" y1="349.51" x2="717.1" y2="230.25" gradientUnits="userSpaceOnUse">
      <stop offset="0" stop-color="#fee9db"/>
      <stop offset=".08" stop-color="#fcdaca"/>
      <stop offset=".25" stop-color="#f9b5a0"/>
      <stop offset=".48" stop-color="#f37a5c"/>
      <stop offset=".51" stop-color="#f37050"/>
      <stop offset=".79" stop-color="#ec4847"/>
      <stop offset=".84" stop-color="#d73c3e"/>
      <stop offset=".93" stop-color="#a11e27"/>
      <stop offset="1" stop-color="#760615"/>
    </linearGradient>
    <linearGradient id="linear-gradient-4" x1="680.22" y1="369.37" x2="750.7" y2="250.1" gradientUnits="userSpaceOnUse">
      <stop offset="0" stop-color="#fa8f5e"/>
      <stop offset=".19" stop-color="#fdc86e"/>
      <stop offset=".66" stop-color="#f53042"/>
      <stop offset=".71" stop-color="#e82b3d"/>
      <stop offset=".81" stop-color="#c82132"/>
      <stop offset=".94" stop-color="#940f20"/>
      <stop offset="1" stop-color="#780616"/>
    </linearGradient>
    <linearGradient id="linear-gradient-5" x1="1114.64" y1="485.33" x2="901.12" y2="527.42" gradientTransform="translate(59.09 -557.77) rotate(18.62)" xlink:href="#linear-gradient-4"/>
    <linearGradient id="linear-gradient-6" x1="737.59" y1="64.68" x2="737.59" y2="281.62" gradientUnits="userSpaceOnUse">
      <stop offset="0" stop-color="#6d5fbd"/>
      <stop offset=".18" stop-color="#9a99ff"/>
      <stop offset=".6" stop-color="#5655c8"/>
      <stop offset="1" stop-color="#113165"/>
    </linearGradient>
    <linearGradient id="linear-gradient-7" x1="719.46" y1="64.68" x2="719.46" y2="281.62" gradientUnits="userSpaceOnUse">
      <stop offset="0" stop-color="#ddc6ea"/>
      <stop offset=".64" stop-color="#8e61c5"/>
      <stop offset="1" stop-color="#13336a"/>
    </linearGradient>
    <linearGradient id="linear-gradient-8" x1="737.98" y1="-19.92" x2="737.98" y2="83.05" gradientUnits="userSpaceOnUse">
      <stop offset="0" stop-color="#2f96d9"/>
      <stop offset=".26" stop-color="#40cbed"/>
      <stop offset=".61" stop-color="#2a85d2"/>
      <stop offset="1" stop-color="#133a72"/>
    </linearGradient>
    <linearGradient id="linear-gradient-9" x1="705.99" y1="-19.92" x2="705.99" y2="83.06" gradientUnits="userSpaceOnUse">
      <stop offset="0" stop-color="#c6eefa"/>
      <stop offset=".59" stop-color="#4194e8"/>
      <stop offset="1" stop-color="#254267"/>
    </linearGradient>
    <linearGradient id="linear-gradient-10" x1="678.27" y1="192.4" x2="751.64" y2="286.68" gradientUnits="userSpaceOnUse">
      <stop offset="0" stop-color="#6d6e71"/>
      <stop offset=".51" stop-color="#fff"/>
      <stop offset="1" stop-color="#6d6e71"/>
    </linearGradient>
    <linearGradient id="linear-gradient-11" x1="3.99" y1="281.58" x2="211.23" y2="281.58" xlink:href="#linear-gradient-3"/>
    <linearGradient id="linear-gradient-12" x1="465.98" y1="700.34" x2="252.48" y2="742.43" gradientTransform="translate(59.09 -557.77) rotate(18.62)" xlink:href="#linear-gradient-4"/>
    <linearGradient id="linear-gradient-13" x1="454.75" y1="643.41" x2="241.26" y2="685.49" gradientTransform="translate(59.09 -557.77) rotate(18.62)" xlink:href="#linear-gradient-6"/>
    <linearGradient id="linear-gradient-14" x1="466.41" y1="687.01" x2="213.22" y2="736.92" gradientTransform="translate(59.09 -557.77) rotate(18.62)" xlink:href="#linear-gradient-6"/>
    <linearGradient id="linear-gradient-15" x1="125.96" y1="82.91" x2="82.89" y2="288.14" xlink:href="#linear-gradient-8"/>
    <linearGradient id="linear-gradient-16" x1="3.99" y1="263.45" x2="211.23" y2="263.45" xlink:href="#linear-gradient-4"/>
    <linearGradient id="linear-gradient-17" x1="220.66" y1="631.01" x2="424.92" y2="705.94" gradientTransform="translate(59.09 -557.77) rotate(18.62)" xlink:href="#linear-gradient-6"/>
    <linearGradient id="linear-gradient-18" x1="100.79" y1="77.63" x2="57.71" y2="282.86" xlink:href="#linear-gradient-9"/>
    <linearGradient id="linear-gradient-19" x1="251.54" y1="372.65" x2="271.59" y2="200.39" gradientUnits="userSpaceOnUse">
      <stop offset="0" stop-color="#f8c9db"/>
      <stop offset=".07" stop-color="#f6b8d2"/>
      <stop offset=".21" stop-color="#f28cbc"/>
      <stop offset=".41" stop-color="#ec4698"/>
      <stop offset=".45" stop-color="#eb3891"/>
      <stop offset=".53" stop-color="#de358b"/>
      <stop offset=".68" stop-color="#be2d7d"/>
      <stop offset=".87" stop-color="#8a2166"/>
      <stop offset="1" stop-color="#661956"/>
    </linearGradient>
    <linearGradient id="linear-gradient-20" x1="-6.28" y1="210.39" x2="150.25" y2="307.12" xlink:href="#linear-gradient-10"/>
    <linearGradient id="linear-gradient-21" x1="205.83" y1="207.85" x2="221.96" y2="334.28" xlink:href="#linear-gradient-10"/>
    <linearGradient id="linear-gradient-22" x1="206.28" y1="207.5" x2="222.45" y2="334.22" xlink:href="#linear-gradient-10"/>
    <linearGradient id="linear-gradient-23" x1="205.3" y1="207.88" x2="221.44" y2="334.35" xlink:href="#linear-gradient-10"/>
    <linearGradient id="linear-gradient-24" x1="202.18" y1="208.35" x2="218.32" y2="334.78" xlink:href="#linear-gradient-10"/>
    <linearGradient id="linear-gradient-25" x1="206.87" y1="207.71" x2="223" y2="334.15" xlink:href="#linear-gradient-10"/>
    <linearGradient id="linear-gradient-26" x1="476.33" y1="666.27" x2="260.79" y2="583.13" gradientTransform="translate(59.09 -557.77) rotate(18.62)" xlink:href="#linear-gradient-7"/>
    <linearGradient id="linear-gradient-27" x1="470.01" y1="688.21" x2="230.88" y2="595.97" gradientTransform="translate(59.09 -557.77) rotate(18.62)" xlink:href="#linear-gradient-7"/>
    <linearGradient id="linear-gradient-28" x1="159.33" y1="80.84" x2="62.02" y2="216.83" xlink:href="#linear-gradient-10"/>
    <linearGradient id="linear-gradient-29" x1="197.31" y1="366.34" x2="217.36" y2="194.08" gradientUnits="userSpaceOnUse">
      <stop offset="0" stop-color="#be237a"/>
      <stop offset=".25" stop-color="#fc4de8"/>
      <stop offset=".52" stop-color="#fa38ad"/>
      <stop offset=".65" stop-color="#fa2d8f"/>
      <stop offset="1" stop-color="#70175e"/>
    </linearGradient>
    <linearGradient id="linear-gradient-30" x1="133.35" y1="147.08" x2="287.91" y2="243.01" xlink:href="#linear-gradient-10"/>
  </defs>
  <g id="Layer_2-2" data-name="Layer 2">
    <g>
      <path class="cls-9" d="M1342.73,517.3h35.61v10.8h-48.89v-101.72h13.28v90.92Z"/>
      <path class="cls-9" d="M1392.5,466.29c3.31-6.18,7.86-10.97,13.65-14.38,5.79-3.4,12.23-5.11,19.34-5.11s13.08,1.51,18.24,4.52c5.16,3.02,9,6.81,11.53,11.38v-14.59h13.43v79.98h-13.43v-14.89c-2.63,4.67-6.54,8.54-11.75,11.6-5.21,3.06-11.26,4.6-18.17,4.6s-13.52-1.75-19.26-5.25c-5.74-3.5-10.27-8.41-13.57-14.74-3.31-6.32-4.96-13.52-4.96-21.6s1.65-15.35,4.96-21.53ZM1451.61,472.2c-2.43-4.47-5.72-7.9-9.85-10.29-4.14-2.38-8.68-3.58-13.65-3.58s-9.49,1.17-13.57,3.5c-4.09,2.33-7.35,5.74-9.78,10.22-2.43,4.48-3.65,9.73-3.65,15.76s1.22,11.46,3.65,15.98c2.43,4.52,5.69,7.98,9.78,10.36,4.09,2.39,8.61,3.58,13.57,3.58s9.51-1.19,13.65-3.58c4.13-2.38,7.42-5.84,9.85-10.36,2.43-4.52,3.65-9.8,3.65-15.83s-1.22-11.29-3.65-15.76Z"/>
      <path class="cls-9" d="M1516.4,451.33c5.25-3.01,11.24-4.52,17.95-4.52,7.2,0,13.67,1.7,19.41,5.11,5.74,3.41,10.26,8.2,13.57,14.38,3.31,6.18,4.96,13.35,4.96,21.53s-1.66,15.28-4.96,21.6c-3.31,6.33-7.86,11.24-13.65,14.74-5.79,3.5-12.24,5.25-19.34,5.25s-12.97-1.51-18.17-4.52c-5.21-3.01-9.12-6.86-11.75-11.53v14.74h-13.28v-108h13.28v42.91c2.72-4.77,6.71-8.66,11.97-11.68ZM1555.08,472.05c-2.43-4.47-5.72-7.88-9.85-10.22-4.14-2.33-8.68-3.5-13.65-3.5s-9.37,1.19-13.5,3.58c-4.14,2.39-7.44,5.84-9.92,10.36-2.48,4.52-3.72,9.75-3.72,15.69s1.24,11.31,3.72,15.83c2.48,4.52,5.79,7.98,9.92,10.36,4.13,2.39,8.63,3.58,13.5,3.58s9.51-1.19,13.65-3.58c4.13-2.38,7.42-5.84,9.85-10.36,2.43-4.52,3.65-9.85,3.65-15.98s-1.22-11.29-3.65-15.76Z"/>
      <path class="cls-9" d="M1601.63,526.27c-4.87-2.09-8.71-5.01-11.53-8.76-2.82-3.74-4.38-8.05-4.67-12.92h13.72c.39,3.99,2.26,7.25,5.62,9.78,3.36,2.53,7.76,3.79,13.21,3.79,5.06,0,9.05-1.12,11.97-3.36,2.92-2.24,4.38-5.06,4.38-8.46s-1.56-6.1-4.67-7.81c-3.11-1.7-7.93-3.38-14.45-5.04-5.94-1.56-10.78-3.14-14.52-4.74-3.75-1.61-6.96-3.99-9.63-7.15-2.68-3.16-4.01-7.32-4.01-12.48,0-4.09,1.21-7.83,3.65-11.24,2.43-3.4,5.89-6.1,10.36-8.1,4.47-1.99,9.58-2.99,15.32-2.99,8.85,0,16,2.24,21.45,6.71,5.45,4.48,8.37,10.61,8.76,18.39h-13.28c-.29-4.18-1.97-7.54-5.04-10.07-3.07-2.53-7.18-3.79-12.33-3.79-4.77,0-8.56,1.02-11.38,3.06-2.82,2.04-4.23,4.72-4.23,8.03,0,2.63.85,4.79,2.55,6.49,1.7,1.7,3.84,3.06,6.42,4.09,2.58,1.02,6.15,2.17,10.73,3.43,5.74,1.56,10.41,3.09,14.01,4.6,3.6,1.51,6.69,3.77,9.27,6.79,2.58,3.02,3.92,6.96,4.01,11.82,0,4.38-1.22,8.32-3.65,11.82-2.43,3.5-5.86,6.25-10.29,8.25-4.43,1.99-9.51,2.99-15.25,2.99-6.13,0-11.63-1.05-16.49-3.14Z"/>
    </g>
  </g>
  <g id="Layer_8" data-name="Layer 8">
    <rect class="cls-30" x="802.12" y="482.16" width="465.92" height="13.23" rx="6.62" ry="6.62"/>
    <rect class="cls-4" x="1689.49" y="482.16" width="170.51" height="13.23" rx="6.62" ry="6.62"/>
  </g>
  <g id="Layer_3" data-name="Layer 3">
    <g>
      <path class="cls-9" d="M849.63,150.64h-32.61v-34.45h32.61v-17.91c0-56.04,27.56-81.3,91.87-81.3v34.91c-37.67,0-50.07,13.78-50.07,46.39v17.91h52.82v34.45h-52.82v217.26h-41.8v-217.26Z"/>
      <path class="cls-9" d="M986.05,46.83c0-16.08,12.4-28.48,28.48-28.48,15.16,0,27.56,12.4,27.56,28.48s-12.4,28.48-27.56,28.48c-16.08,0-28.48-12.4-28.48-28.48ZM992.94,116.19h41.8v251.71h-41.8V116.19Z"/>
      <path class="cls-9" d="M1212.95,112.05c62.47,0,103.35,32.15,116.21,84.98h-45.01c-8.73-30.31-33.99-49.61-71.2-49.61-45.93,0-79.92,32.61-79.92,94.16s33.99,95.08,79.92,95.08c37.21,0,62.01-17.91,71.2-49.61h45.01c-12.86,50.07-53.74,84.98-116.21,84.98-71.65,0-122.64-50.53-122.64-130.45s50.99-129.53,122.64-129.53Z"/>
      <path class="cls-9" d="M1377.86,46.83c0-16.08,12.4-28.48,28.48-28.48,15.16,0,27.56,12.4,27.56,28.48s-12.4,28.48-27.56,28.48c-16.08,0-28.48-12.4-28.48-28.48ZM1384.75,116.19h41.8v251.71h-41.8V116.19Z"/>
      <path class="cls-9" d="M1601.55,112.05c46.85,0,79.01,23.89,93.7,50.07v-45.93h42.26v251.71h-42.26v-46.85c-15.16,27.1-47.77,50.99-94.16,50.99-67.06,0-118.97-52.82-118.97-130.91s51.9-129.07,119.43-129.07ZM1609.82,148.34c-45.93,0-84.98,33.53-84.98,92.79s39.04,94.16,84.98,94.16,85.44-34.45,85.44-93.7-39.5-93.25-85.44-93.25Z"/>
      <path class="cls-9" d="M1808.26,28h41.8v339.91h-41.8V28Z"/>
    </g>
  </g>
  <g id="Layer_4" data-name="Layer 4">
    <g>
      <g>
        <path class="cls-14" d="M683.37,193.41v173.73c36.57-26.34,36.3-68.82,36.3-68.82v-68.52h-19.45l-16.84-36.39Z"/>
        <path class="cls-12" d="M755.54,294.97v-65.17h-35.87v68.52s.28,42.48-36.3,68.82c39.86,0,72.17-32.31,72.17-72.17Z"/>
      </g>
      <g>
        <g>
          <path class="cls-15" d="M755.62,232.64c-.04-.95-.05-1.9-.05-2.84h-.03c.02.95.04,1.89.08,2.84Z"/>
          <path class="cls-11" d="M719.66,235.49v-5.69c-.04,1.89-.03,3.79,0,5.69Z"/>
        </g>
        <g>
          <path class="cls-27" d="M755.54,229.8V89.3s-35.88,26.74-35.88,68.67v71.83c-.04,1.89-.03,3.79,0,5.69v19.67c.68.71,1.36,1.42,2.06,2.12,1.33,1.32,2.67,2.63,4.06,3.9,9.1,8.38,19.1,15.41,29.76,21.04v-52.42h0Z"/>
          <path class="cls-23" d="M683.38,161.47v27.55s1.88,15.39,6.57,20.2c4.56,11.25,10.27,20.58,10.27,20.58,5.44,9.09,11.95,17.59,19.45,25.36v-19.67c-.03-1.9-.04-3.8,0-5.69v-71.83c0-41.93,35.88-68.67,35.88-68.67-39.86,0-72.17,32.31-72.17,72.17Z"/>
        </g>
        <g>
          <path class="cls-9" d="M742.38,119.67s-.02-.02-.02-.03c0,0,.02.02.02.03Z"/>
          <path class="cls-9" d="M743.54,121.22c-.44-.6-.83-1.11-1.17-1.54.4.51.79,1.02,1.17,1.54Z"/>
          <path class="cls-9" d="M743.66,121.38c-.04-.06-.08-.11-.12-.16.04.05.08.11.12.16Z"/>
          <path class="cls-9" d="M742.35,119.64c-.81-1.02-1.31-1.56-1.31-1.56.45.51.88,1.03,1.31,1.56Z"/>
        </g>
        <g>
          <path class="cls-11" d="M755.92,39.65c.12-1.17.18-2.36.18-3.56s-.06-2.39-.18-3.56v7.13Z"/>
          <path class="cls-18" d="M728.06.91c-4.66,9.65-8.02,21.04-8.02,33.86v37.39c18.71-.01,34.09-14.27,35.88-32.52v-7.13c-1.53-15.56-12.93-28.21-27.86-31.61Z"/>
          <path class="cls-24" d="M720.04,34.78c0-12.82,3.36-24.21,8.02-33.86-2.59-.59-5.28-.91-8.05-.91-19.93,0-36.08,16.16-36.08,36.08s16.16,36.08,36.08,36.08c0,0,.02,0,.03,0v-37.39Z"/>
        </g>
      </g>
      <path class="cls-6" d="M729.03,262.57c-31.31-27.9-45.65-65.44-45.65-74.14,0,19.75,23.9,55.72,42.41,72.75,9.1,8.37,19.1,15.4,29.76,21.03,0,0-18.74-12.7-26.51-19.63Z"/>
    </g>
  </g>
  <g id="Layer_5" data-name="Layer 5">
    <path class="cls-9" d="M508.5,154.78h-32.61v-34.45h32.61v-63.39h41.8v63.39h65.68v34.45h-65.68v148.36c0,24.8,9.19,33.53,34.91,33.53h30.78v35.37h-37.67c-44.55,0-69.82-18.37-69.82-68.9v-148.36Z"/>
  </g>
  <g id="Layer_6" data-name="Layer 6">
    <path class="cls-9" d="M369.78,372.04h-41.8V120.32h41.8v40.88c14.24-28.02,41.34-45.47,81.3-45.47v43.18h-11.02c-39.96,0-70.28,17.91-70.28,76.25v136.88Z"/>
  </g>
  <g id="Layer_7" data-name="Layer 7">
    <g>
      <path class="cls-25" d="M264.5,226.45h-4.24c-.01,85.13-92.1,102.31-92.1,102.31-6.06,1.05-12.23,1.72-18.49,1.98-37.55,1.56-73.45-11.59-101.1-37.04-19.99-18.39-33.93-41.61-40.72-67.25-2.6-9.83-4.16-20.02-4.59-30.42C1.09,205.93,0,216.11,0,226.45c0,1.94.03,3.89.11,5.84,1.56,37.55,17.65,72.24,45.3,97.68,18.56,17.08,40.84,28.61,64.84,33.88,11.76,2.58,23.92,3.67,36.26,3.16,37.55-1.56,72.23-17.65,97.68-45.3,17.08-18.56,31.88-40.84,37.15-64.84-3.29-10.66-11.11-20.86-16.84-30.42Z"/>
      <g>
        <path class="cls-7" d="M72.25,229.3c-.04-.95-.05-1.9-.05-2.84h-.03c.02.95.04,1.89.08,2.84Z"/>
        <path class="cls-2" d="M90.28,180.08c12.38-13.46,29.27-21.29,47.55-22.05,37.55-1.56,73.45,11.59,101.1,37.04,10.13,9.32,18.69,19.89,25.57,31.38h8.99c-6.78-25.64-20.72-48.87-40.71-67.26-27.65-25.44-63.56-38.6-101.1-37.04-6.25.26-12.42.93-18.48,1.98-1.32,1.33-2.63,2.67-3.9,4.06-24.8,26.95-37.92,61.75-37.12,98.26h.03c-.02-17.24,6.34-33.61,18.08-46.37Z"/>
        <path class="cls-19" d="M281.34,256.87s-5.25-20.59-7.85-30.42h-8.99c5.72,9.56,16.84,30.42,16.84,30.42Z"/>
      </g>
      <path class="cls-1" d="M94.3,276.84c-13.46-12.38-21.29-29.27-22.05-47.55-.04-.95-.06-1.9-.08-2.84-.8-36.51,12.32-71.31,37.12-98.26,17.08-18.56,38.33-31.9,61.8-39.15-.01,0-.02,0-.03,0-37.53,1.57-72.21,17.66-97.64,45.3-23.4,25.43-36.4,57.85-37.12,92.11-.06,2.99-.04,5.98.08,9,.26,6.26.93,12.43,1.99,18.5,1.32,1.32,2.67,2.62,4.05,3.89,27.65,25.44,63.56,38.6,101.1,37.04-18.28.76-35.75-5.64-49.21-18.03Z"/>
      <g>
        <path class="cls-29" d="M245.05,226.45h-35.92c.02,17.24-6.34,33.61-18.08,46.37-12.38,13.46-29.27,21.29-47.55,22.05-37.54,1.56-73.45-11.59-101.1-37.04-10.13-9.32-18.69-19.89-25.57-31.38-5.72-9.56-10.29-19.76-13.58-30.42.43,10.41,1.99,20.59,4.59,30.42,6.79,25.64,20.73,48.86,40.72,67.25,27.65,25.44,63.56,38.6,101.1,37.04,6.25-.26,12.42-.93,18.49-1.98,0,0,92.09-17.18,92.1-102.31h-15.21Z"/>
        <path class="cls-22" d="M209.09,223.61c.04.95.05,1.9.05,2.84h.03c-.02-.95-.04-1.89-.08-2.84Z"/>
      </g>
      <path class="cls-32" d="M134.83,85.89c-37.54,1.56-72.23,17.65-97.68,45.3-17.08,18.56-28.61,40.84-33.88,64.84,3.29,10.66,7.85,20.86,13.57,30.42,5.94,9.92,13.14,19.15,21.52,27.49-1.05-6.07-1.73-12.24-1.99-18.5-.13-3.01-.15-6.01-.08-9,.72-34.25,13.72-66.67,37.12-92.11,25.44-27.64,60.11-43.73,97.64-45.3-11.74-2.58-23.9-3.66-36.23-3.15Z"/>
      <path class="cls-26" d="M264.5,226.45c-5.94-9.92-13.14-19.14-21.51-27.48,1.05,6.06,1.72,12.23,1.98,18.47.13,3.01.14,6.02.08,9.01v68.67c0,41.93,36.29,68.67,36.29,68.67v-106.92l-16.84-30.42Z"/>
      <path class="cls-21" d="M78.31,280.65c-29.4-13.26-48.55-35.74-60.14-54.19-9.87-15.72-14.28-28.52-14.84-30.22,3.29,10.59,7.82,20.72,13.51,30.22,6.88,11.49,15.44,22.06,25.57,31.38,27.65,25.44,63.56,38.6,101.1,37.04,5.42-.23,10.72-1.09,15.82-2.52-19.64,3.56-47.62,3.36-81.02-11.7Z"/>
      <g>
        <path class="cls-28" d="M221.17,331.87c.44.6.83,1.11,1.17,1.54-.4-.51-.79-1.02-1.17-1.54Z"/>
        <path class="cls-16" d="M222.34,333.42s.02.02.02.03c0,0-.02-.02-.02-.03Z"/>
        <path class="cls-31" d="M221.05,331.71c.04.06.08.11.12.16-.04-.05-.08-.11-.12-.16Z"/>
        <path class="cls-17" d="M221.05,331.71c-11.88-16.57-11.88-40.09-11.88-40.09v-65.17c-.02-.95-.04-1.89-.08-2.84-.23-5.42-1.09-10.72-2.52-15.82,1.01,5.57,1.45,11.82,1.6,18.66v65.3c0,19.58,8.47,33.85,12.89,39.96Z"/>
        <path class="cls-5" d="M222.36,333.44c.81,1.02,1.31,1.56,1.31,1.56-.45-.51-.88-1.03-1.31-1.56Z"/>
      </g>
      <g>
        <path class="cls-10" d="M281.23,220.61c-1.56-37.55-17.65-72.24-45.3-97.68-18.56-17.08-40.84-28.61-64.84-33.88-21.72,6.7-41.53,18.64-57.9,35.09,6.06-1.05,12.23-1.72,18.48-1.98,37.55-1.56,73.45,11.59,101.1,37.04,19.99,18.39,33.93,41.62,40.71,67.26h7.85c0-1.94-.03-3.89-.11-5.84Z"/>
        <path class="cls-8" d="M281.34,226.45h-7.85c2.6,9.83,7.85,30.42,7.85,30.42,0,0,0-20.08,0-30.42Z"/>
      </g>
      <path class="cls-3" d="M86.48,164.1c24.55-54.44,80.72-73.76,84.41-74.98-23.4,7.26-44.57,20.57-61.6,39.08-24.8,26.95-37.92,61.75-37.12,98.26,0,0,1.38-16.11,1.73-18.83,1.64-13.08,5.44-27.69,12.58-43.52Z"/>
      <path class="cls-20" d="M245.05,295.12v-68.67c.06-2.99.04-5.99-.08-9.01-.26-6.25-.93-12.41-1.98-18.47-1.33-1.32-2.67-2.63-4.06-3.9-27.65-25.44-63.56-38.6-101.1-37.04,18.28-.76,35.75,5.64,49.21,18.03,13.46,12.38,21.29,29.27,22.05,47.55.04.95.06,1.9.08,2.84h0v65.17c0,39.86,32.31,72.17,72.17,72.17,0,0-36.29-26.74-36.29-68.67Z"/>
      <path class="cls-13" d="M264.5,226.45c-6.88-11.49-15.44-22.06-25.57-31.38-27.65-25.45-63.56-38.6-101.1-37.04-5.42.23-10.72,1.09-15.82,2.52,19.64-3.56,47.62-3.36,81.02,11.7,29.4,13.26,48.55,35.74,60.14,54.19,9.87,15.72,17.61,28.52,18.17,30.22-3.29-10.59-11.16-20.72-16.84-30.22Z"/>
    </g>
  </g>
</svg>